PathFileType	4	(X/Y/Z)	RBDS03\RBDS03runT45.trc
DataRate	CameraRate	NumFrames	NumMarkers	Units	OrigDataRate	OrigDataStartFrame	OrigNumFrames
150.000000	150.000000	4	33	mm	150.000000	1125	4500
Frame#	Time	L.ASIS			L.Heel.Bottom			L.Heel.Lateral			L.Heel.Top			L.Iliac.Crest			L.MT1			L.MT5			L.PSIS			L.Shank.Bottom.Lateral			L.Shank.Bottom.Medial			L.Shank.Top.Lateral			L.Shank.Top.Medial			L.Thigh.Bottom.Lateral			L.Thigh.Bottom.Medial			L.Thigh.Top.Lateral			L.Thigh.Top.Medial			R.ASIS			R.ASY			R.Heel.Bottom			R.Heel.Lateral			R.Heel.Top			R.Iliac.Crest			R.MT1			R.MT5			R.PSIS			R.Shank.Bottom.Lateral			R.Shank.Bottom.Medial			R.Shank.Top.Lateral			R.Shank.Top.Medial			R.Thigh.Bottom.Lateral			R.Thigh.Bottom.Medial			R.Thigh.Top.Lateral			R.Thigh.Top.Medial			
		X1	Y1	Z1	X2	Y2	Z2	X3	Y3	Z3	X4	Y4	Z4	X5	Y5	Z5	X6	Y6	Z6	X7	Y7	Z7	X8	Y8	Z8	X9	Y9	Z9	X10	Y10	Z10	X11	Y11	Z11	X12	Y12	Z12	X13	Y13	Z13	X14	Y14	Z14	X15	Y15	Z15	X16	Y16	Z16	X17	Y17	Z17	X18	Y18	Z18	X19	Y19	Z19	X20	Y20	Z20	X21	Y21	Z21	X22	Y22	Z22	X23	Y23	Z23	X24	Y24	Z24	X25	Y25	Z25	X26	Y26	Z26	X27	Y27	Z27	X28	Y28	Z28	X29	Y29	Z29	X30	Y30	Z30	X31	Y31	Z31	X32	Y32	Z32	X33	Y33	Z33	

1126	7.500000000000001	2510.228529742599	986.1098390623883	948.5362186743383	1950.638125827313	663.7329341125208	1018.871995893173	1944.180290669519	633.6200308415243	967.3532656955306	1990.850954101288	632.853825267394	1012.394052406415	2457.129485889224	1057.375431813374	892.9439398743262	1878.949790035658	445.1196963620194	1038.776451713542	1870.722632814078	493.8112986672605	938.9164544380964	2333.279269413832	1021.561993567399	983.4683693548718	2047.430359287881	557.4045458783927	944.528905445704	2058.679640141136	593.7019592098354	983.780807759871	2125.414974605006	550.2452004410019	927.3667629834932	2137.726540270424	586.8973862558368	964.6856628372077	2404.561415181303	539.8168260917945	898.8081570504595	2347.583085085826	550.4544074245175	943.5738277593003	2409.299157794572	648.2210831363811	880.2537896992598	2349.05130551215	657.3063664997995	914.7077972857717	2478.402626214521	1011.661858660466	1157.076669124804	-39516210.43404058	7617612.010842387	-23512530.65735626	2438.964161173545	34.22301358001365	1042.533971221063	2471.266388783859	53.93232762795417	1091.9813442889	2451.888235870565	81.65021967828068	1042.461765317555	2410.311224281159	1075.99962715971	1193.075022251802	2656.741858332085	46.12808679215349	1022.693994146315	2624.373196465981	37.58205211426289	1134.355843069915	2318.970895557848	1029.873225282776	1066.496652348254	2517.974211662623	150.3470717061191	1110.74309226422	2481.88222248592	165.6890071549224	1076.528573746705	2520.289610407409	230.5646408425058	1138.974050596578	2484.972294189011	242.5839551847395	1100.758925810963	2547.765268933822	611.3207180253874	1194.594823404095	2492.853328456711	583.7961920692671	1155.906079771725	2489.106208723639	702.4328058081094	1213.749027387704	2437.429973337335	676.7105656687918	1177.020865448279	
1127	7.506666666666667	2505.689725146281	979.9212058103993	948.9154240547552	1968.709677164682	661.6386518968227	1014.432598674984	1963.540898377223	630.5401442140609	963.5179953395465	2009.267434344019	631.0976379944863	1009.303776914564	2453.020299843784	1050.230866070001	892.1269055460536	1898.419309869299	442.8574148295707	1036.981530056995	1892.024955406329	489.5810221628589	936.1509326534517	2329.493484776865	1016.890887454082	983.2875314182152	2066.923529650411	553.6934471006358	942.602514227469	2078.650580592316	590.7781142554712	980.9293959984186	2144.866619595422	545.4853954470884	925.459001109521	2157.641419298012	582.8028462110286	961.9842759193881	2420.880385434028	534.5415002827585	897.997235501874	2362.280229441706	542.7514122172297	940.9259024306888	2420.915660047557	642.9750693996773	879.1842064646808	2359.121118686595	649.1030002869105	911.4635078617556	2474.907969632989	1006.613156030501	1157.170398611128	-39622651.4538637	7639075.393042507	-23575566.74915313	2409.637003135242	36.06482759437218	1041.898640003981	2442.257781641256	56.09110450267935	1090.988791747043	2423.622684049971	83.34555063214384	1040.936694338944	2407.777831540091	1068.388884860073	1193.518203572956	2627.64542162581	44.1026081943978	1022.309854988606	2594.950479508815	37.62705499318126	1133.892396227692	2315.414389915929	1025.406122457336	1066.020405099777	2495.795735822421	150.9694540746152	1109.175522444438	2459.737383985771	168.421832441814	1075.852835170637	2502.946003813528	230.8020739478359	1138.073614527637	2467.475403411814	244.995619505879	1100.652209578158	2544.734598192428	607.7418910888726	1195.363679090074	2489.918342276157	580.3863006438598	1156.361143217538	2485.99006418542	698.8111148601996	1214.733555585649	2434.392037730691	673.2260801293372	1177.678349794364	
1128	7.513333333333334	2501.055120891475	974.4407575642097	949.253668352324	1985.888660667272	658.1262046069336	1009.526019210679	1982.383158239415	625.8408063321307	959.4110254814999	2026.986450503852	628.2151003212078	1005.947761134518	2448.295668556322	1043.825446285722	891.5136862590539	1918.395586935674	438.8365111339149	1035.415309666147	1913.863004550453	483.2325139649949	933.4969812619609	2325.662516586314	1012.925882494089	983.418455266077	2086.338994380429	549.1253828689023	940.7200195035864	2098.254884463328	587.187959836024	977.9561432857157	2164.293610858781	540.3937527222279	923.6558789894725	2177.241630760258	578.5554818280165	959.2639302304163	2437.803218928226	531.0108915979268	897.4098641260937	2377.822686277916	536.6018586749825	938.576188898994	2432.924198628843	639.2419440904234	878.2431302000856	2369.829081668805	642.2364029087071	908.5097098728538	2471.464007660974	1001.946930705978	1157.309307325222	-39729283.39420081	7660578.959683808	-23638715.39584188	2380.223704179223	37.70328001478626	1041.415474030954	2412.990845839981	58.11425659333936	1090.227053317028	2394.860211480608	84.84908370552533	1039.738999845649	2405.370773130975	1061.166942517319	1194.136340776713	2597.9909056541	43.46360094962214	1022.244957664091	2565.16844448285	38.46260721077072	1133.603039086858	2311.941918141166	1021.57470268487	1065.797791638421	2472.490679576828	151.842932906223	1107.917281862118	2436.664948729897	171.2451497730723	1075.353743399803	2484.22187416349	231.0684202603195	1137.294823933826	2448.760837667192	247.2875642491229	1100.581346422377	2539.93460525869	603.750491713873	1195.877082571998	2485.103046125292	576.9037057973881	1156.497329624622	2481.585578464843	695.1052539377295	1215.430628570651	2429.994186562546	669.9316736963111	1178.023975895873	
1129	7.52	2496.490330333073	969.8118499285898	949.5269437509103	2001.992627901661	653.1535383851101	1004.362616402803	2000.515059957874	619.5847492649884	955.1910870974249	2043.811513424191	624.1949789620296	1002.473039910989	2443.077107209421	1038.358251643018	891.1270750838536	1938.810754582588	433.0517572143276	1034.072073166026	1936.111941286914	474.9137278446626	931.0106245071964	2321.91922734968	1009.743487202821	983.8490712418521	2105.505793124995	543.7948673543269	938.9481583957544	2117.281812401639	583.0032195371958	974.951535255352	2183.531050357925	535.1060321282946	922.0124143865793	2196.321145245504	574.2785893289183	956.5792164214989	2455.113374479562	529.3645587191983	897.0709060896264	2394.042508928342	532.1631701081451	936.6162930601188	2445.157044566551	637.1378916344751	877.445590275049	2381.07140502617	636.8810886224522	905.9543893178533	2468.195335268062	997.7837152449333	1157.517787035219	-39836106.42608834	7682122.748266268	-23701976.69781637	2350.697377457365	39.04602992760443	1041.063109395686	2383.490160088208	59.86557512309228	1089.674130463438	2365.653017826936	86.086279956434	1038.851860040361	2403.028869209493	1054.548357358568	1194.892181752176	2567.933962185745	43.7848145595305	1022.417463080923	2535.130628009684	39.72523943237291	1133.430093071495	2308.668027435095	1018.457674380687	1065.843901583902	2448.046613628558	152.7468314242975	1106.941698720353	2412.653301028136	173.9223545473363	1074.975187965279	2464.053354456754	231.1810672428054	1136.605163724989	2428.763744715703	249.2541273605379	1100.488669123127	2533.269169841449	599.3431073462233	1196.086985174855	2478.265572421588	573.3575057940011	1156.335314262265	2475.863292072386	691.3361457630391	1215.799614328321	2424.163395156377	666.864908418415	1178.075986741321	
